#!OML:ASF H:\GeneralSubjects\Female5\Project 1\Capture day 1\Session 1\Female5.ASF
:FULLY-SPECIFIED
:DEGREES
171
root -25.8805 16.3754 4.75958 -26.9826 85.7578 -43.2888
lowerback 7.01756 1.61203 3.85297
upperback -9.77722 3.21093 1.31168
thorax -14.6249 1.31154 -1.34974
lowerneck -15.8394 -1.08805 0.312367
upperneck 40.0552 1.09555 -2.50674
head 17.3826 0.746676 -0.802419
rclavicle -2.75938e-014 -4.09496e-014
rhumerus -31.9668 27.7035 -82.7816
rradius 49.5175
rwrist -20.1549
rhand -30.6701 -18.3432
rfingers 7.12502
rthumb -3.96461 -48.2861
lclavicle -2.75938e-014 -4.09496e-014
lhumerus -25.8483 -13.6192 83.8049
lradius 49.3154
lwrist -2.21426
lhand -33.721 32.7405
lfingers 7.12502
lthumb -6.91021 62.6077
rfemur -5.36997 26.9288 31.1438
rtibia -11.1986
rfoot -13.4369 -29.8506
rtoes -15.3698
lfemur -8.28616 -32.8535 -24.2515
ltibia -3.77407
lfoot -33.9956 9.95531
ltoes -33.5432
172
root -25.837 16.3805 4.77303 -23.1771 85.5707 -39.8817
lowerback 7.10787 1.70321 3.61552
upperback -9.65976 3.29423 1.32635
thorax -14.5475 1.37639 -1.21818
lowerneck -15.9813 -1.09999 0.345385
upperneck 39.844 1.07356 -2.62528
head 17.3017 0.712343 -0.868136
rclavicle -6.62201e-015 -2.34566e-014
rhumerus -33.6291 27.7481 -83.8062
rradius 48.6195
rwrist -20.1795
rhand -30.314 -18.2002
rfingers 7.12502
rthumb -3.62069 -48.1492
lclavicle -6.62201e-015 -2.34566e-014
lhumerus -28.3129 -13.9022 84.3452
lradius 49.6163
lwrist -2.80342
lhand -33.7593 32.1267
lfingers 7.12502
lthumb -6.94722 61.9927
rfemur -5.67917 26.932 30.9961
rtibia -11.2803
rfoot -12.3584 -29.7007
rtoes -16.3148
lfemur -8.30025 -33.8273 -24.1064
ltibia -4.13804
lfoot -34.9317 11.0039
ltoes -34.1837
173
root -25.789 16.3839 4.78703 -19.8252 85.3692 -36.943
lowerback 7.18609 1.77803 3.41585
upperback -9.53195 3.35727 1.33045
thorax -14.4493 1.42685 -1.11475
lowerneck -16.1223 -1.09486 0.370877
upperneck 39.6421 1.07151 -2.71782
head 17.2265 0.688855 -0.916605
rclavicle 8.77933e-015 -7.55382e-015
rhumerus -35.9249 27.8847 -85.1141
rradius 47.6898
rwrist -19.6456
rhand -29.6177 -18.041
rfingers 7.12502
rthumb -2.9483 -48.0003
lclavicle 8.77933e-015 -7.55382e-015
lhumerus -31.2808 -14.1755 84.8154
lradius 49.5438
lwrist -3.80554
lhand -33.0898 31.5699
lfingers 7.12502
lthumb -6.30088 61.4562
rfemur -5.99248 26.9344 30.8645
rtibia -11.343
rfoot -11.5258 -29.5219
rtoes -16.9938
lfemur -8.29821 -34.9019 -23.936
ltibia -4.52726
lfoot -35.9511 12.0276
ltoes -34.6526
174
root -25.7362 16.3852 4.80044 -16.9482 85.1866 -34.4968
lowerback 7.22663 1.83489 3.2729
upperback -9.38486 3.39798 1.31811
thorax -14.3017 1.46028 -1.05462
lowerneck -16.2692 -1.08267 0.363758
upperneck 39.4465 1.0742 -2.76504
head 17.1567 0.668752 -0.937608
rclavicle -1.58034e-014 -2.38542e-015
rhumerus -38.8861 28.0209 -86.6805
rradius 46.764
rwrist -18.7419
rhand -28.6648 -17.939
rfingers 7.12502
rthumb -2.02795 -47.9091
lclavicle -1.58034e-014 -2.38542e-015
lhumerus -34.692 -14.369 85.1917
lradius 49.0454
lwrist -5.16739
lhand -31.8553 30.9925
lfingers 7.12502
lthumb -5.10898 60.9109
rfemur -6.29734 26.9031 30.7346
rtibia -11.4122
rfoot -10.9164 -29.3223
rtoes -17.449
lfemur -8.19028 -34.9061 -23.968
ltibia -5.04294
lfoot -36.0155 12.2737
ltoes -34.5116
175
root -25.6791 16.3845 4.8128 -14.6555 85.0532 -32.6612
lowerback 7.24913 1.86447 3.21004
upperback -9.22698 3.4086 1.28619
thorax -14.1261 1.47003 -1.05376
lowerneck -16.438 -1.07097 0.316583
upperneck 39.2546 1.0672 -2.75732
head 17.0941 0.645895 -0.928531
rclavicle -2.37299e-015 8.74653e-015
rhumerus -42.4662 27.9737 -88.4289
rradius 45.8253
rwrist -17.6382
rhand -27.8355 -18.0244
rfingers 7.12502
rthumb -1.22701 -48.0006
lclavicle -2.37299e-015 8.74653e-015
lhumerus -38.4932 -14.391 85.4044
lradius 48.1249
lwrist -6.83205
lhand -30.1834 30.2936
lfingers 7.12502
lthumb -3.49457 60.2447
rfemur -6.60163 26.8064 30.6043
rtibia -11.4989
rfoot -10.4104 -29.1091
rtoes -17.9482
lfemur -8.15908 -34.9868 -23.9734
ltibia -5.46689
lfoot -36.2424 12.0335
ltoes -33.57
176
root -25.618 16.3822 4.82421 -12.9738 84.9866 -31.4631
lowerback 7.2576 1.8666 3.22563
upperback -9.05115 3.38901 1.24034
thorax -13.917 1.45702 -1.10499
lowerneck -16.6523 -1.0628 0.225449
upperneck 39.0534 1.04282 -2.69059
head 17.0375 0.616246 -0.888649
rclavicle 4.99446e-015 -9.14409e-015
rhumerus -46.5075 27.5376 -90.1803
rradius 44.8158
rwrist -16.4985
rhand -27.1877 -18.4122
rfingers 7.12502
rthumb -0.601336 -48.3911
lclavicle 4.99446e-015 -9.14409e-015
lhumerus -42.5168 -14.1344 85.3428
lradius 46.7098
lwrist -8.81933
lhand -28.8575 29.4031
lfingers 7.12502
lthumb -2.21405 59.3714
rfemur -6.90252 26.6284 30.4813
rtibia -11.6094
rfoot -10.0122 -28.8757
rtoes -18.4124
lfemur -8.2488 -35.1557 -23.9246
ltibia -5.74613
lfoot -36.5992 11.418
ltoes -32.0258
177
root -25.5528 16.379 4.83495 -11.9127 84.9801 -30.9049
lowerback 7.26593 1.84662 3.31095
upperback -8.85424 3.34666 1.18855
thorax -13.6808 1.42639 -1.19668
lowerneck -16.9185 -1.05196 0.102274
upperneck 38.821 1.00751 -2.57416
head 16.9769 0.582316 -0.823248
rclavicle 2.5345e-015 -7.95139e-016
rhumerus -50.8233 26.6063 -91.7495
rradius 43.6465
rwrist -15.5369
rhand -26.6547 -19.1839
rfingers 7.12502
rthumb -0.0865547 -49.1636
lclavicle 2.5345e-015 -7.95139e-016
lhumerus -46.636 -13.5678 84.8868
lradius 44.8466
lwrist -10.9862
lhand -27.842 29.029
lfingers 7.12502
lthumb -1.23334 59.0052
rfemur -7.19188 26.3775 30.3837
rtibia -11.7382
rfoot -9.72301 -28.6172
rtoes -18.7664
lfemur -8.46489 -35.3867 -23.8022
ltibia -5.8736
lfoot -36.9772 10.7205
ltoes -30.4071
178
root -25.4843 16.3755 4.84552 -11.4479 85.017 -30.9552
lowerback 7.29171 1.81226 3.44493
upperback -8.6402 3.29153 1.14005
thorax -13.4352 1.38561 -1.30986
lowerneck -17.2329 -1.03822 -0.0283616
upperneck 38.557 0.967775 -2.44176
head 16.9117 0.546123 -0.750776
rclavicle -1.98785e-015 1.63003e-014
rhumerus -55.215 25.1399 -92.924
rradius 42.2537
rwrist -14.8663
rhand -26.038 -20.4136
rfingers 7.12502
rthumb 0.509068 -50.3927
lclavicle -1.98785e-015 1.63003e-014
lhumerus -50.7227 -12.6793 83.8991
lradius 42.5592
lwrist -13.2315
lhand -27.4109 29.1009
lfingers 7.12502
lthumb -0.816989 59.0791
rfemur -7.47184 26.0725 30.3214
rtibia -11.8748
rfoot -9.49548 -28.3323
rtoes -19.0534
lfemur -8.81445 -35.6741 -23.5825
ltibia -5.8511
lfoot -37.3343 10.112
ltoes -29.0006
